Bitcount_Prop_Single.ufo
<glyph name="px.ix-1.iy-2" format="2">
  <advance width="100"/>
  <outline>
    <contour>
      <point x="-50" y="-200" type="curve" smooth="yes"/>
      <point x="-22" y="-200"/>
      <point x="0" y="-178"/>
      <point x="0" y="-150" type="curve" smooth="yes"/>
      <point x="0" y="-122"/>
      <point x="-22" y="-100"/>
      <point x="-50" y="-100" type="curve" smooth="yes"/>
      <point x="-78" y="-100"/>
      <point x="-100" y="-122"/>
      <point x="-100" y="-150" type="curve" smooth="yes"/>
      <point x="-100" y="-178"/>
      <point x="-78" y="-200"/>
    </contour>
  </outline>
</glyph>
<glyph name="px.ix-1.iy2" format="2">
  <advance width="100"/>
  <outline>
    <contour>
      <point x="-50" y="200" type="curve" smooth="yes"/>
      <point x="-22" y="200"/>
      <point x="0" y="222"/>
      <point x="0" y="250" type="curve" smooth="yes"/>
      <point x="0" y="278"/>
      <point x="-22" y="300"/>
      <point x="-50" y="300" type="curve" smooth="yes"/>
      <point x="-78" y="300"/>
      <point x="-100" y="278"/>
      <point x="-100" y="250" type="curve" smooth="yes"/>
      <point x="-100" y="222"/>
      <point x="-78" y="200"/>
    </contour>
  </outline>
</glyph>
<glyph name="px.ix-1.iy4" format="2">
  <advance width="100"/>
  <outline>
    <contour>
      <point x="-50" y="400" type="curve" smooth="yes"/>
      <point x="-22" y="400"/>
      <point x="0" y="422"/>
      <point x="0" y="450" type="curve" smooth="yes"/>
      <point x="0" y="478"/>
      <point x="-22" y="500"/>
      <point x="-50" y="500" type="curve" smooth="yes"/>
      <point x="-78" y="500"/>
      <point x="-100" y="478"/>
      <point x="-100" y="450" type="curve" smooth="yes"/>
      <point x="-100" y="422"/>
      <point x="-78" y="400"/>
    </contour>
  </outline>
</glyph>
<glyph name="px.ix-1.iy5" format="2">
  <advance width="100"/>
  <outline>
    <contour>
      <point x="-50" y="500" type="curve" smooth="yes"/>
      <point x="-22" y="500"/>
      <point x="0" y="522"/>
      <point x="0" y="550" type="curve" smooth="yes"/>
      <point x="0" y="578"/>
      <point x="-22" y="600"/>
      <point x="-50" y="600" type="curve" smooth="yes"/>
      <point x="-78" y="600"/>
      <point x="-100" y="578"/>
      <point x="-100" y="550" type="curve" smooth="yes"/>
      <point x="-100" y="522"/>
      <point x="-78" y="500"/>
    </contour>
  </outline>
</glyph>
<glyph name="px.ix-1.iy6" format="2">
  <advance width="100"/>
  <outline>
    <contour>
      <point x="-50" y="600" type="curve" smooth="yes"/>
      <point x="-22" y="600"/>
      <point x="0" y="622"/>
      <point x="0" y="650" type="curve" smooth="yes"/>
      <point x="0" y="678"/>
      <point x="-22" y="700"/>
      <point x="-50" y="700" type="curve" smooth="yes"/>
      <point x="-78" y="700"/>
      <point x="-100" y="678"/>
      <point x="-100" y="650" type="curve" smooth="yes"/>
      <point x="-100" y="622"/>
      <point x="-78" y="600"/>
    </contour>
  </outline>
</glyph>
<glyph name="px.ix-1.iy7" format="2">
  <advance width="100"/>
  <outline>
    <contour>
      <point x="-50" y="700" type="curve" smooth="yes"/>
      <point x="-22" y="700"/>
      <point x="0" y="722"/>
      <point x="0" y="750" type="curve" smooth="yes"/>
      <point x="0" y="778"/>
      <point x="-22" y="800"/>
      <point x="-50" y="800" type="curve" smooth="yes"/>
      <point x="-78" y="800"/>
      <point x="-100" y="778"/>
      <point x="-100" y="750" type="curve" smooth="yes"/>
      <point x="-100" y="722"/>
      <point x="-78" y="700"/>
    </contour>
  </outline>
</glyph>
<glyph name="px.ix0.iy3" format="2">
  <advance width="100"/>
  <outline>
    <contour>
      <point x="50" y="300" type="curve" smooth="yes"/>
      <point x="78" y="300"/>
      <point x="100" y="322"/>
      <point x="100" y="350" type="curve" smooth="yes"/>
      <point x="100" y="378"/>
      <point x="78" y="400"/>
      <point x="50" y="400" type="curve" smooth="yes"/>
      <point x="22" y="400"/>
      <point x="0" y="378"/>
      <point x="0" y="350" type="curve" smooth="yes"/>
      <point x="0" y="322"/>
      <point x="22" y="300"/>
    </contour>
  </outline>
</glyph>
<glyph name="px.ix0.iy9" format="2">
  <advance width="100"/>
  <outline>
    <contour>
      <point x="50" y="900" type="curve" smooth="yes"/>
      <point x="78" y="900"/>
      <point x="100" y="922"/>
      <point x="100" y="950" type="curve" smooth="yes"/>
      <point x="100" y="978"/>
      <point x="78" y="1000"/>
      <point x="50" y="1000" type="curve" smooth="yes"/>
      <point x="22" y="1000"/>
      <point x="0" y="978"/>
      <point x="0" y="950" type="curve" smooth="yes"/>
      <point x="0" y="922"/>
      <point x="22" y="900"/>
    </contour>
  </outline>
</glyph>
<glyph name="px.ix1.iy-2" format="2">
  <advance width="100"/>
  <outline>
    <contour>
      <point x="150" y="-200" type="curve" smooth="yes"/>
      <point x="178" y="-200"/>
      <point x="200" y="-178"/>
      <point x="200" y="-150" type="curve" smooth="yes"/>
      <point x="200" y="-122"/>
      <point x="178" y="-100"/>
      <point x="150" y="-100" type="curve" smooth="yes"/>
      <point x="122" y="-100"/>
      <point x="100" y="-122"/>
      <point x="100" y="-150" type="curve" smooth="yes"/>
      <point x="100" y="-178"/>
      <point x="122" y="-200"/>
    </contour>
  </outline>
</glyph>
<glyph name="px.ix1.iy0" format="2">
  <advance width="100"/>
  <outline>
    <contour>
      <point x="150" y="0" type="curve" smooth="yes"/>
      <point x="178" y="0"/>
      <point x="200" y="22"/>
      <point x="200" y="50" type="curve" smooth="yes"/>
      <point x="200" y="78"/>
      <point x="178" y="100"/>
      <point x="150" y="100" type="curve" smooth="yes"/>
      <point x="122" y="100"/>
      <point x="100" y="78"/>
      <point x="100" y="50" type="curve" smooth="yes"/>
      <point x="100" y="22"/>
      <point x="122" y="0"/>
    </contour>
  </outline>
</glyph>
<glyph name="px.ix1.iy3" format="2">
  <advance width="100"/>
  <outline>
    <contour>
      <point x="150" y="300" type="curve" smooth="yes"/>
      <point x="178" y="300"/>
      <point x="200" y="322"/>
      <point x="200" y="350" type="curve" smooth="yes"/>
      <point x="200" y="378"/>
      <point x="178" y="400"/>
      <point x="150" y="400" type="curve" smooth="yes"/>
      <point x="122" y="400"/>
      <point x="100" y="378"/>
      <point x="100" y="350" type="curve" smooth="yes"/>
      <point x="100" y="322"/>
      <point x="122" y="300"/>
    </contour>
  </outline>
</glyph>
<glyph name="px.ix2.iy-2" format="2">
  <advance width="100"/>
  <outline>
    <contour>
      <point x="250" y="-200" type="curve" smooth="yes"/>
      <point x="278" y="-200"/>
      <point x="300" y="-178"/>
      <point x="300" y="-150" type="curve" smooth="yes"/>
      <point x="300" y="-122"/>
      <point x="278" y="-100"/>
      <point x="250" y="-100" type="curve" smooth="yes"/>
      <point x="222" y="-100"/>
      <point x="200" y="-122"/>
      <point x="200" y="-150" type="curve" smooth="yes"/>
      <point x="200" y="-178"/>
      <point x="222" y="-200"/>
    </contour>
  </outline>
</glyph>
<glyph name="px.ix2.iy-3" format="2">
  <advance width="100"/>
  <outline>
    <contour>
      <point x="250" y="-300" type="curve" smooth="yes"/>
      <point x="278" y="-300"/>
      <point x="300" y="-278"/>
      <point x="300" y="-250" type="curve" smooth="yes"/>
      <point x="300" y="-222"/>
      <point x="278" y="-200"/>
      <point x="250" y="-200" type="curve" smooth="yes"/>
      <point x="222" y="-200"/>
      <point x="200" y="-222"/>
      <point x="200" y="-250" type="curve" smooth="yes"/>
      <point x="200" y="-278"/>
      <point x="222" y="-300"/>
    </contour>
  </outline>
</glyph>
<glyph name="px.ix2.iy0" format="2">
  <advance width="100"/>
  <outline>
    <contour>
      <point x="250" y="0" type="curve" smooth="yes"/>
      <point x="278" y="0"/>
      <point x="300" y="22"/>
      <point x="300" y="50" type="curve" smooth="yes"/>
      <point x="300" y="78"/>
      <point x="278" y="100"/>
      <point x="250" y="100" type="curve" smooth="yes"/>
      <point x="222" y="100"/>
      <point x="200" y="78"/>
      <point x="200" y="50" type="curve" smooth="yes"/>
      <point x="200" y="22"/>
      <point x="222" y="0"/>
    </contour>
  </outline>
</glyph>
<glyph name="px.ix2.iy5" format="2">
  <advance width="100"/>
  <outline>
    <contour>
      <point x="250" y="500" type="curve" smooth="yes"/>
      <point x="278" y="500"/>
      <point x="300" y="522"/>
      <point x="300" y="550" type="curve" smooth="yes"/>
      <point x="300" y="578"/>
      <point x="278" y="600"/>
      <point x="250" y="600" type="curve" smooth="yes"/>
      <point x="222" y="600"/>
      <point x="200" y="578"/>
      <point x="200" y="550" type="curve" smooth="yes"/>
      <point x="200" y="522"/>
      <point x="222" y="500"/>
    </contour>
  </outline>
</glyph>
<glyph name="px.ix2.iy6" format="2">
  <advance width="100"/>
  <outline>
    <contour>
      <point x="250" y="600" type="curve" smooth="yes"/>
      <point x="278" y="600"/>
      <point x="300" y="622"/>
      <point x="300" y="650" type="curve" smooth="yes"/>
      <point x="300" y="678"/>
      <point x="278" y="700"/>
      <point x="250" y="700" type="curve" smooth="yes"/>
      <point x="222" y="700"/>
      <point x="200" y="678"/>
      <point x="200" y="650" type="curve" smooth="yes"/>
      <point x="200" y="622"/>
      <point x="222" y="600"/>
    </contour>
  </outline>
</glyph>
<glyph name="px.ix2.iy7" format="2">
  <advance width="100"/>
  <outline>
    <contour>
      <point x="250" y="700" type="curve" smooth="yes"/>
      <point x="278" y="700"/>
      <point x="300" y="722"/>
      <point x="300" y="750" type="curve" smooth="yes"/>
      <point x="300" y="778"/>
      <point x="278" y="800"/>
      <point x="250" y="800" type="curve" smooth="yes"/>
      <point x="222" y="800"/>
      <point x="200" y="778"/>
      <point x="200" y="750" type="curve" smooth="yes"/>
      <point x="200" y="722"/>
      <point x="222" y="700"/>
    </contour>
  </outline>
</glyph>
<glyph name="px.ix2.iy8" format="2">
  <advance width="100"/>
  <outline>
    <contour>
      <point x="250" y="800" type="curve" smooth="yes"/>
      <point x="278" y="800"/>
      <point x="300" y="822"/>
      <point x="300" y="850" type="curve" smooth="yes"/>
      <point x="300" y="878"/>
      <point x="278" y="900"/>
      <point x="250" y="900" type="curve" smooth="yes"/>
      <point x="222" y="900"/>
      <point x="200" y="878"/>
      <point x="200" y="850" type="curve" smooth="yes"/>
      <point x="200" y="822"/>
      <point x="222" y="800"/>
    </contour>
  </outline>
</glyph>
<glyph name="px.ix2.iy9" format="2">
  <advance width="100"/>
  <outline>
    <contour>
      <point x="250" y="900" type="curve" smooth="yes"/>
      <point x="278" y="900"/>
      <point x="300" y="922"/>
      <point x="300" y="950" type="curve" smooth="yes"/>
      <point x="300" y="978"/>
      <point x="278" y="1000"/>
      <point x="250" y="1000" type="curve" smooth="yes"/>
      <point x="222" y="1000"/>
      <point x="200" y="978"/>
      <point x="200" y="950" type="curve" smooth="yes"/>
      <point x="200" y="922"/>
      <point x="222" y="900"/>
    </contour>
  </outline>
</glyph>
<glyph name="px.ix3.iy-2" format="2">
  <advance width="100"/>
  <outline>
    <contour>
      <point x="350" y="-200" type="curve" smooth="yes"/>
      <point x="378" y="-200"/>
      <point x="400" y="-178"/>
      <point x="400" y="-150" type="curve" smooth="yes"/>
      <point x="400" y="-122"/>
      <point x="378" y="-100"/>
      <point x="350" y="-100" type="curve" smooth="yes"/>
      <point x="322" y="-100"/>
      <point x="300" y="-122"/>
      <point x="300" y="-150" type="curve" smooth="yes"/>
      <point x="300" y="-178"/>
      <point x="322" y="-200"/>
    </contour>
  </outline>
</glyph>
<glyph name="px.ix3.iy6" format="2">
  <advance width="100"/>
  <outline>
    <contour>
      <point x="350" y="600" type="curve" smooth="yes"/>
      <point x="378" y="600"/>
      <point x="400" y="622"/>
      <point x="400" y="650" type="curve" smooth="yes"/>
      <point x="400" y="678"/>
      <point x="378" y="700"/>
      <point x="350" y="700" type="curve" smooth="yes"/>
      <point x="322" y="700"/>
      <point x="300" y="678"/>
      <point x="300" y="650" type="curve" smooth="yes"/>
      <point x="300" y="622"/>
      <point x="322" y="600"/>
    </contour>
  </outline>
</glyph>
<glyph name="px.ix3.iy7" format="2">
  <advance width="100"/>
  <outline>
    <contour>
      <point x="350" y="700" type="curve" smooth="yes"/>
      <point x="378" y="700"/>
      <point x="400" y="722"/>
      <point x="400" y="750" type="curve" smooth="yes"/>
      <point x="400" y="778"/>
      <point x="378" y="800"/>
      <point x="350" y="800" type="curve" smooth="yes"/>
      <point x="322" y="800"/>
      <point x="300" y="778"/>
      <point x="300" y="750" type="curve" smooth="yes"/>
      <point x="300" y="722"/>
      <point x="322" y="700"/>
    </contour>
  </outline>
</glyph>
<glyph name="px.ix3.iy8" format="2">
  <advance width="100"/>
  <outline>
    <contour>
      <point x="350" y="800" type="curve" smooth="yes"/>
      <point x="378" y="800"/>
      <point x="400" y="822"/>
      <point x="400" y="850" type="curve" smooth="yes"/>
      <point x="400" y="878"/>
      <point x="378" y="900"/>
      <point x="350" y="900" type="curve" smooth="yes"/>
      <point x="322" y="900"/>
      <point x="300" y="878"/>
      <point x="300" y="850" type="curve" smooth="yes"/>
      <point x="300" y="822"/>
      <point x="322" y="800"/>
    </contour>
  </outline>
</glyph>
<glyph name="px.ix3.iy9" format="2">
  <advance width="100"/>
  <outline>
    <contour>
      <point x="350" y="900" type="curve" smooth="yes"/>
      <point x="378" y="900"/>
      <point x="400" y="922"/>
      <point x="400" y="950" type="curve" smooth="yes"/>
      <point x="400" y="978"/>
      <point x="378" y="1000"/>
      <point x="350" y="1000" type="curve" smooth="yes"/>
      <point x="322" y="1000"/>
      <point x="300" y="978"/>
      <point x="300" y="950" type="curve" smooth="yes"/>
      <point x="300" y="922"/>
      <point x="322" y="900"/>
    </contour>
  </outline>
</glyph>
<glyph name="px.ix4.iy-1" format="2">
  <advance width="100"/>
  <outline>
    <contour>
      <point x="450" y="-100" type="curve" smooth="yes"/>
      <point x="478" y="-100"/>
      <point x="500" y="-78"/>
      <point x="500" y="-50" type="curve" smooth="yes"/>
      <point x="500" y="-22"/>
      <point x="478" y="0"/>
      <point x="450" y="0" type="curve" smooth="yes"/>
      <point x="422" y="0"/>
      <point x="400" y="-22"/>
      <point x="400" y="-50" type="curve" smooth="yes"/>
      <point x="400" y="-78"/>
      <point x="422" y="-100"/>
    </contour>
  </outline>
</glyph>
<glyph name="px.ix4.iy-2" format="2">
  <advance width="100"/>
  <outline>
    <contour>
      <point x="450" y="-200" type="curve" smooth="yes"/>
      <point x="478" y="-200"/>
      <point x="500" y="-178"/>
      <point x="500" y="-150" type="curve" smooth="yes"/>
      <point x="500" y="-122"/>
      <point x="478" y="-100"/>
      <point x="450" y="-100" type="curve" smooth="yes"/>
      <point x="422" y="-100"/>
      <point x="400" y="-122"/>
      <point x="400" y="-150" type="curve" smooth="yes"/>
      <point x="400" y="-178"/>
      <point x="422" y="-200"/>
    </contour>
  </outline>
</glyph>
<glyph name="px.ix4.iy6" format="2">
  <advance width="100"/>
  <outline>
    <contour>
      <point x="450" y="600" type="curve" smooth="yes"/>
      <point x="478" y="600"/>
      <point x="500" y="622"/>
      <point x="500" y="650" type="curve" smooth="yes"/>
      <point x="500" y="678"/>
      <point x="478" y="700"/>
      <point x="450" y="700" type="curve" smooth="yes"/>
      <point x="422" y="700"/>
      <point x="400" y="678"/>
      <point x="400" y="650" type="curve" smooth="yes"/>
      <point x="400" y="622"/>
      <point x="422" y="600"/>
    </contour>
  </outline>
</glyph>
<glyph name="px.ix4.iy7" format="2">
  <advance width="100"/>
  <outline>
    <contour>
      <point x="450" y="700" type="curve" smooth="yes"/>
      <point x="478" y="700"/>
      <point x="500" y="722"/>
      <point x="500" y="750" type="curve" smooth="yes"/>
      <point x="500" y="778"/>
      <point x="478" y="800"/>
      <point x="450" y="800" type="curve" smooth="yes"/>
      <point x="422" y="800"/>
      <point x="400" y="778"/>
      <point x="400" y="750" type="curve" smooth="yes"/>
      <point x="400" y="722"/>
      <point x="422" y="700"/>
    </contour>
  </outline>
</glyph>
<glyph name="px.ix4.iy9" format="2">
  <advance width="100"/>
  <outline>
    <contour>
      <point x="450" y="900" type="curve" smooth="yes"/>
      <point x="478" y="900"/>
      <point x="500" y="922"/>
      <point x="500" y="950" type="curve" smooth="yes"/>
      <point x="500" y="978"/>
      <point x="478" y="1000"/>
      <point x="450" y="1000" type="curve" smooth="yes"/>
      <point x="422" y="1000"/>
      <point x="400" y="978"/>
      <point x="400" y="950" type="curve" smooth="yes"/>
      <point x="400" y="922"/>
      <point x="422" y="900"/>
    </contour>
  </outline>
</glyph>
<glyph name="px.ix5.iy2" format="2">
  <advance width="100"/>
  <outline>
    <contour>
      <point x="550" y="200" type="curve" smooth="yes"/>
      <point x="578" y="200"/>
      <point x="600" y="222"/>
      <point x="600" y="250" type="curve" smooth="yes"/>
      <point x="600" y="278"/>
      <point x="578" y="300"/>
      <point x="550" y="300" type="curve" smooth="yes"/>
      <point x="522" y="300"/>
      <point x="500" y="278"/>
      <point x="500" y="250" type="curve" smooth="yes"/>
      <point x="500" y="222"/>
      <point x="522" y="200"/>
    </contour>
  </outline>
</glyph>
<glyph name="px.ix5.iy7" format="2">
  <advance width="100"/>
  <outline>
    <contour>
      <point x="550" y="700" type="curve" smooth="yes"/>
      <point x="578" y="700"/>
      <point x="600" y="722"/>
      <point x="600" y="750" type="curve" smooth="yes"/>
      <point x="600" y="778"/>
      <point x="578" y="800"/>
      <point x="550" y="800" type="curve" smooth="yes"/>
      <point x="522" y="800"/>
      <point x="500" y="778"/>
      <point x="500" y="750" type="curve" smooth="yes"/>
      <point x="500" y="722"/>
      <point x="522" y="700"/>
    </contour>
  </outline>
</glyph>
<glyph name="px.ix5.iy8" format="2">
  <advance width="100"/>
  <outline>
    <contour>
      <point x="550" y="800" type="curve" smooth="yes"/>
      <point x="578" y="800"/>
      <point x="600" y="822"/>
      <point x="600" y="850" type="curve" smooth="yes"/>
      <point x="600" y="878"/>
      <point x="578" y="900"/>
      <point x="550" y="900" type="curve" smooth="yes"/>
      <point x="522" y="900"/>
      <point x="500" y="878"/>
      <point x="500" y="850" type="curve" smooth="yes"/>
      <point x="500" y="822"/>
      <point x="522" y="800"/>
    </contour>
  </outline>
</glyph>
<glyph name="px.ix6.iy0" format="2">
  <advance width="100"/>
  <outline>
    <contour>
      <point x="650" y="0" type="curve" smooth="yes"/>
      <point x="678" y="0"/>
      <point x="700" y="22"/>
      <point x="700" y="50" type="curve" smooth="yes"/>
      <point x="700" y="78"/>
      <point x="678" y="100"/>
      <point x="650" y="100" type="curve" smooth="yes"/>
      <point x="622" y="100"/>
      <point x="600" y="78"/>
      <point x="600" y="50" type="curve" smooth="yes"/>
      <point x="600" y="22"/>
      <point x="622" y="0"/>
    </contour>
  </outline>
</glyph>
<glyph name="px.ix6.iy1" format="2">
  <advance width="100"/>
  <outline>
    <contour>
      <point x="650" y="100" type="curve" smooth="yes"/>
      <point x="678" y="100"/>
      <point x="700" y="122"/>
      <point x="700" y="150" type="curve" smooth="yes"/>
      <point x="700" y="178"/>
      <point x="678" y="200"/>
      <point x="650" y="200" type="curve" smooth="yes"/>
      <point x="622" y="200"/>
      <point x="600" y="178"/>
      <point x="600" y="150" type="curve" smooth="yes"/>
      <point x="600" y="122"/>
      <point x="622" y="100"/>
    </contour>
  </outline>
</glyph>
<glyph name="px.ix6.iy5" format="2">
  <advance width="100"/>
  <outline>
    <contour>
      <point x="650" y="500" type="curve" smooth="yes"/>
      <point x="678" y="500"/>
      <point x="700" y="522"/>
      <point x="700" y="550" type="curve" smooth="yes"/>
      <point x="700" y="578"/>
      <point x="678" y="600"/>
      <point x="650" y="600" type="curve" smooth="yes"/>
      <point x="622" y="600"/>
      <point x="600" y="578"/>
      <point x="600" y="550" type="curve" smooth="yes"/>
      <point x="600" y="522"/>
      <point x="622" y="500"/>
    </contour>
  </outline>
</glyph>
<glyph name="px.ix6.iy6" format="2">
  <advance width="100"/>
  <outline>
    <contour>
      <point x="650" y="600" type="curve" smooth="yes"/>
      <point x="678" y="600"/>
      <point x="700" y="622"/>
      <point x="700" y="650" type="curve" smooth="yes"/>
      <point x="700" y="678"/>
      <point x="678" y="700"/>
      <point x="650" y="700" type="curve" smooth="yes"/>
      <point x="622" y="700"/>
      <point x="600" y="678"/>
      <point x="600" y="650" type="curve" smooth="yes"/>
      <point x="600" y="622"/>
      <point x="622" y="600"/>
    </contour>
  </outline>
</glyph>
<glyph name="px.ix6.iy8" format="2">
  <advance width="100"/>
  <outline>
    <contour>
      <point x="650" y="800" type="curve" smooth="yes"/>
      <point x="678" y="800"/>
      <point x="700" y="822"/>
      <point x="700" y="850" type="curve" smooth="yes"/>
      <point x="700" y="878"/>
      <point x="678" y="900"/>
      <point x="650" y="900" type="curve" smooth="yes"/>
      <point x="622" y="900"/>
      <point x="600" y="878"/>
      <point x="600" y="850" type="curve" smooth="yes"/>
      <point x="600" y="822"/>
      <point x="622" y="800"/>
    </contour>
  </outline>
</glyph>
<glyph name="px.ix7.iy0" format="2">
  <advance width="100"/>
  <outline>
    <contour>
      <point x="750" y="0" type="curve" smooth="yes"/>
      <point x="778" y="0"/>
      <point x="800" y="22"/>
      <point x="800" y="50" type="curve" smooth="yes"/>
      <point x="800" y="78"/>
      <point x="778" y="100"/>
      <point x="750" y="100" type="curve" smooth="yes"/>
      <point x="722" y="100"/>
      <point x="700" y="78"/>
      <point x="700" y="50" type="curve" smooth="yes"/>
      <point x="700" y="22"/>
      <point x="722" y="0"/>
    </contour>
  </outline>
</glyph>
<glyph name="px.ix7.iy2" format="2">
  <advance width="100"/>
  <outline>
    <contour>
      <point x="750" y="200" type="curve" smooth="yes"/>
      <point x="778" y="200"/>
      <point x="800" y="222"/>
      <point x="800" y="250" type="curve" smooth="yes"/>
      <point x="800" y="278"/>
      <point x="778" y="300"/>
      <point x="750" y="300" type="curve" smooth="yes"/>
      <point x="722" y="300"/>
      <point x="700" y="278"/>
      <point x="700" y="250" type="curve" smooth="yes"/>
      <point x="700" y="222"/>
      <point x="722" y="200"/>
    </contour>
  </outline>
</glyph>
<glyph name="px.ix7.iy6" format="2">
  <advance width="100"/>
  <outline>
    <contour>
      <point x="750" y="600" type="curve" smooth="yes"/>
      <point x="778" y="600"/>
      <point x="800" y="622"/>
      <point x="800" y="650" type="curve" smooth="yes"/>
      <point x="800" y="678"/>
      <point x="778" y="700"/>
      <point x="750" y="700" type="curve" smooth="yes"/>
      <point x="722" y="700"/>
      <point x="700" y="678"/>
      <point x="700" y="650" type="curve" smooth="yes"/>
      <point x="700" y="622"/>
      <point x="722" y="600"/>
    </contour>
  </outline>
</glyph>
<glyph name="px.ix7.iy8" format="2">
  <advance width="100"/>
  <outline>
    <contour>
      <point x="750" y="800" type="curve" smooth="yes"/>
      <point x="778" y="800"/>
      <point x="800" y="822"/>
      <point x="800" y="850" type="curve" smooth="yes"/>
      <point x="800" y="878"/>
      <point x="778" y="900"/>
      <point x="750" y="900" type="curve" smooth="yes"/>
      <point x="722" y="900"/>
      <point x="700" y="878"/>
      <point x="700" y="850" type="curve" smooth="yes"/>
      <point x="700" y="822"/>
      <point x="722" y="800"/>
    </contour>
  </outline>
</glyph>
<glyph name="px.ix7.iy9" format="2">
  <advance width="100"/>
  <outline>
    <contour>
      <point x="750" y="900" type="curve" smooth="yes"/>
      <point x="778" y="900"/>
      <point x="800" y="922"/>
      <point x="800" y="950" type="curve" smooth="yes"/>
      <point x="800" y="978"/>
      <point x="778" y="1000"/>
      <point x="750" y="1000" type="curve" smooth="yes"/>
      <point x="722" y="1000"/>
      <point x="700" y="978"/>
      <point x="700" y="950" type="curve" smooth="yes"/>
      <point x="700" y="922"/>
      <point x="722" y="900"/>
    </contour>
  </outline>
</glyph>
<glyph name="px.ix8.iy0" format="2">
  <advance width="100"/>
  <outline>
    <contour>
      <point x="850" y="0" type="curve" smooth="yes"/>
      <point x="878" y="0"/>
      <point x="900" y="22"/>
      <point x="900" y="50" type="curve" smooth="yes"/>
      <point x="900" y="78"/>
      <point x="878" y="100"/>
      <point x="850" y="100" type="curve" smooth="yes"/>
      <point x="822" y="100"/>
      <point x="800" y="78"/>
      <point x="800" y="50" type="curve" smooth="yes"/>
      <point x="800" y="22"/>
      <point x="822" y="0"/>
    </contour>
  </outline>
</glyph>
<glyph name="px.ix8.iy1" format="2">
  <advance width="100"/>
  <outline>
    <contour>
      <point x="850" y="100" type="curve" smooth="yes"/>
      <point x="878" y="100"/>
      <point x="900" y="122"/>
      <point x="900" y="150" type="curve" smooth="yes"/>
      <point x="900" y="178"/>
      <point x="878" y="200"/>
      <point x="850" y="200" type="curve" smooth="yes"/>
      <point x="822" y="200"/>
      <point x="800" y="178"/>
      <point x="800" y="150" type="curve" smooth="yes"/>
      <point x="800" y="122"/>
      <point x="822" y="100"/>
    </contour>
  </outline>
</glyph>
<glyph name="px.ix8.iy2" format="2">
  <advance width="100"/>
  <outline>
    <contour>
      <point x="850" y="200" type="curve" smooth="yes"/>
      <point x="878" y="200"/>
      <point x="900" y="222"/>
      <point x="900" y="250" type="curve" smooth="yes"/>
      <point x="900" y="278"/>
      <point x="878" y="300"/>
      <point x="850" y="300" type="curve" smooth="yes"/>
      <point x="822" y="300"/>
      <point x="800" y="278"/>
      <point x="800" y="250" type="curve" smooth="yes"/>
      <point x="800" y="222"/>
      <point x="822" y="200"/>
    </contour>
  </outline>
</glyph>
<glyph name="px.ix8.iy4" format="2">
  <advance width="100"/>
  <outline>
    <contour>
      <point x="850" y="400" type="curve" smooth="yes"/>
      <point x="878" y="400"/>
      <point x="900" y="422"/>
      <point x="900" y="450" type="curve" smooth="yes"/>
      <point x="900" y="478"/>
      <point x="878" y="500"/>
      <point x="850" y="500" type="curve" smooth="yes"/>
      <point x="822" y="500"/>
      <point x="800" y="478"/>
      <point x="800" y="450" type="curve" smooth="yes"/>
      <point x="800" y="422"/>
      <point x="822" y="400"/>
    </contour>
  </outline>
</glyph>
<glyph name="px.ix8.iy5" format="2">
  <advance width="100"/>
  <outline>
    <contour>
      <point x="850" y="500" type="curve" smooth="yes"/>
      <point x="878" y="500"/>
      <point x="900" y="522"/>
      <point x="900" y="550" type="curve" smooth="yes"/>
      <point x="900" y="578"/>
      <point x="878" y="600"/>
      <point x="850" y="600" type="curve" smooth="yes"/>
      <point x="822" y="600"/>
      <point x="800" y="578"/>
      <point x="800" y="550" type="curve" smooth="yes"/>
      <point x="800" y="522"/>
      <point x="822" y="500"/>
    </contour>
  </outline>
</glyph>
<glyph name="px.ix8.iy7" format="2">
  <advance width="100"/>
  <outline>
    <contour>
      <point x="850" y="700" type="curve" smooth="yes"/>
      <point x="878" y="700"/>
      <point x="900" y="722"/>
      <point x="900" y="750" type="curve" smooth="yes"/>
      <point x="900" y="778"/>
      <point x="878" y="800"/>
      <point x="850" y="800" type="curve" smooth="yes"/>
      <point x="822" y="800"/>
      <point x="800" y="778"/>
      <point x="800" y="750" type="curve" smooth="yes"/>
      <point x="800" y="722"/>
      <point x="822" y="700"/>
    </contour>
  </outline>
</glyph>
<glyph name="px.ix8.iy8" format="2">
  <advance width="100"/>
  <outline>
    <contour>
      <point x="850" y="800" type="curve" smooth="yes"/>
      <point x="878" y="800"/>
      <point x="900" y="822"/>
      <point x="900" y="850" type="curve" smooth="yes"/>
      <point x="900" y="878"/>
      <point x="878" y="900"/>
      <point x="850" y="900" type="curve" smooth="yes"/>
      <point x="822" y="900"/>
      <point x="800" y="878"/>
      <point x="800" y="850" type="curve" smooth="yes"/>
      <point x="800" y="822"/>
      <point x="822" y="800"/>
    </contour>
  </outline>
</glyph>
<glyph name="px.ix9.iy0" format="2">
  <advance width="100"/>
  <outline>
    <contour>
      <point x="950" y="0" type="curve" smooth="yes"/>
      <point x="978" y="0"/>
      <point x="1000" y="22"/>
      <point x="1000" y="50" type="curve" smooth="yes"/>
      <point x="1000" y="78"/>
      <point x="978" y="100"/>
      <point x="950" y="100" type="curve" smooth="yes"/>
      <point x="922" y="100"/>
      <point x="900" y="78"/>
      <point x="900" y="50" type="curve" smooth="yes"/>
      <point x="900" y="22"/>
      <point x="922" y="0"/>
    </contour>
  </outline>
</glyph>
<glyph name="px.ix9.iy3" format="2">
  <advance width="100"/>
  <outline>
    <contour>
      <point x="950" y="300" type="curve" smooth="yes"/>
      <point x="978" y="300"/>
      <point x="1000" y="322"/>
      <point x="1000" y="350" type="curve" smooth="yes"/>
      <point x="1000" y="378"/>
      <point x="978" y="400"/>
      <point x="950" y="400" type="curve" smooth="yes"/>
      <point x="922" y="400"/>
      <point x="900" y="378"/>
      <point x="900" y="350" type="curve" smooth="yes"/>
      <point x="900" y="322"/>
      <point x="922" y="300"/>
    </contour>
  </outline>
</glyph>
<glyph name="px.ix9.iy4" format="2">
  <advance width="100"/>
  <outline>
    <contour>
      <point x="950" y="400" type="curve" smooth="yes"/>
      <point x="978" y="400"/>
      <point x="1000" y="422"/>
      <point x="1000" y="450" type="curve" smooth="yes"/>
      <point x="1000" y="478"/>
      <point x="978" y="500"/>
      <point x="950" y="500" type="curve" smooth="yes"/>
      <point x="922" y="500"/>
      <point x="900" y="478"/>
      <point x="900" y="450" type="curve" smooth="yes"/>
      <point x="900" y="422"/>
      <point x="922" y="400"/>
    </contour>
  </outline>
</glyph>
<glyph name="px.ix9.iy6" format="2">
  <advance width="100"/>
  <outline>
    <contour>
      <point x="950" y="600" type="curve" smooth="yes"/>
      <point x="978" y="600"/>
      <point x="1000" y="622"/>
      <point x="1000" y="650" type="curve" smooth="yes"/>
      <point x="1000" y="678"/>
      <point x="978" y="700"/>
      <point x="950" y="700" type="curve" smooth="yes"/>
      <point x="922" y="700"/>
      <point x="900" y="678"/>
      <point x="900" y="650" type="curve" smooth="yes"/>
      <point x="900" y="622"/>
      <point x="922" y="600"/>
    </contour>
  </outline>
</glyph>
<glyph name="px.ix9.iy7" format="2">
  <advance width="100"/>
  <outline>
    <contour>
      <point x="950" y="700" type="curve" smooth="yes"/>
      <point x="978" y="700"/>
      <point x="1000" y="722"/>
      <point x="1000" y="750" type="curve" smooth="yes"/>
      <point x="1000" y="778"/>
      <point x="978" y="800"/>
      <point x="950" y="800" type="curve" smooth="yes"/>
      <point x="922" y="800"/>
      <point x="900" y="778"/>
      <point x="900" y="750" type="curve" smooth="yes"/>
      <point x="900" y="722"/>
      <point x="922" y="700"/>
    </contour>
  </outline>
</glyph>
<glyph name="px.ix9.iy8" format="2">
  <advance width="100"/>
  <outline>
    <contour>
      <point x="950" y="800" type="curve" smooth="yes"/>
      <point x="978" y="800"/>
      <point x="1000" y="822"/>
      <point x="1000" y="850" type="curve" smooth="yes"/>
      <point x="1000" y="878"/>
      <point x="978" y="900"/>
      <point x="950" y="900" type="curve" smooth="yes"/>
      <point x="922" y="900"/>
      <point x="900" y="878"/>
      <point x="900" y="850" type="curve" smooth="yes"/>
      <point x="900" y="822"/>
      <point x="922" y="800"/>
    </contour>
  </outline>
</glyph>
<glyph name="px.ix9.iy9" format="2">
  <advance width="100"/>
  <outline>
    <contour>
      <point x="950" y="900" type="curve" smooth="yes"/>
      <point x="978" y="900"/>
      <point x="1000" y="922"/>
      <point x="1000" y="950" type="curve" smooth="yes"/>
      <point x="1000" y="978"/>
      <point x="978" y="1000"/>
      <point x="950" y="1000" type="curve" smooth="yes"/>
      <point x="922" y="1000"/>
      <point x="900" y="978"/>
      <point x="900" y="950" type="curve" smooth="yes"/>
      <point x="900" y="922"/>
      <point x="922" y="900"/>
    </contour>
  </outline>
</glyph>
